<svg width="1196pt" height="644pt" viewBox="0.00 0.00 1196.00 644.00" xmlns="http://www.w3.org/2000/svg" xmlns:xlink="http://www.w3.org/1999/xlink">
<g id="graph0" class="graph" transform="scale(1 1) rotate(0) translate(4 640)">
<title>SYSTEM_1_MIN</title>
<polygon fill="white" stroke="none" points="-4,4 -4,-640 1192,-640 1192,4 -4,4"/>
<!-- S1 -->
<g id="node1" class="node">
<title>S1</title>
<ellipse fill="none" stroke="black" cx="18" cy="-571" rx="18" ry="18"/>
<text xml:space="preserve" text-anchor="middle" x="18" y="-568.3" font-family="Times,serif" font-size="9.00">S1</text>
</g>
<!-- S2 -->
<g id="node2" class="node">
<title>S2</title>
<ellipse fill="none" stroke="black" cx="90" cy="-372" rx="18" ry="18"/>
<text xml:space="preserve" text-anchor="middle" x="90" y="-369.3" font-family="Times,serif" font-size="9.00">S2</text>
</g>
<!-- S1&#45;&gt;S2 -->
<g id="edge3" class="edge">
<title>S1-&gt;S2</title>
<path fill="none" stroke="black" d="M24.97,-554.03C37.06,-519.67 64.53,-441.56 79.26,-399.7"/>
<polygon fill="black" stroke="black" points="82.53,-400.95 82.54,-390.35 75.92,-398.62 82.53,-400.95"/>
</g>
<!-- S3 -->
<g id="node3" class="node">
<title>S3</title>
<ellipse fill="none" stroke="black" cx="594" cy="-440" rx="18" ry="18"/>
<text xml:space="preserve" text-anchor="middle" x="594" y="-437.3" font-family="Times,serif" font-size="9.00">S3</text>
</g>
<!-- S1&#45;&gt;S3 -->
<g id="edge2" class="edge">
<title>S1-&gt;S3</title>
<path fill="none" stroke="black" d="M35.18,-565.4C61.55,-562 115.39,-562 161,-562 161,-562 161,-562 379,-562 459.72,-562 535.7,-493.37 571.52,-458.87"/>
<polygon fill="black" stroke="black" points="573.91,-461.43 578.65,-451.95 569.03,-456.4 573.91,-461.43"/>
</g>
<!-- S7 -->
<g id="node7" class="node">
<title>S7</title>
<ellipse fill="none" stroke="black" cx="1026" cy="-385" rx="18" ry="18"/>
<text xml:space="preserve" text-anchor="middle" x="1026" y="-382.3" font-family="Times,serif" font-size="9.00">S7</text>
</g>
<!-- S1&#45;&gt;S7 -->
<g id="edge1" class="edge">
<title>S1-&gt;S7</title>
<path fill="none" stroke="black" d="M35.22,-576.35C60.78,-589.38 112.5,-618 161,-618 161,-618 161,-618 883,-618 978.19,-618 1010.79,-477 1020.9,-414.26"/>
<polygon fill="black" stroke="black" points="1024.32,-415.07 1022.35,-404.66 1017.39,-414.02 1024.32,-415.07"/>
</g>
<!-- S4 -->
<g id="node4" class="node">
<title>S4</title>
<ellipse fill="none" stroke="black" cx="162" cy="-372" rx="18" ry="18"/>
<text xml:space="preserve" text-anchor="middle" x="162" y="-369.3" font-family="Times,serif" font-size="9.00">S4</text>
</g>
<!-- S2&#45;&gt;S4 -->
<g id="edge13" class="edge">
<title>S2-&gt;S4</title>
<path fill="none" stroke="black" d="M107.24,-366.2C115.01,-365.33 124.54,-365.06 133.4,-365.39"/>
<polygon fill="black" stroke="black" points="133.12,-368.87 143.34,-366.1 133.62,-361.89 133.12,-368.87"/>
</g>
<!-- S8 -->
<g id="node8" class="node">
<title>S8</title>
<ellipse fill="none" stroke="black" cx="1098" cy="-48" rx="18" ry="18"/>
<text xml:space="preserve" text-anchor="middle" x="1098" y="-45.3" font-family="Times,serif" font-size="9.00">S8</text>
</g>
<!-- S2&#45;&gt;S8 -->
<g id="edge12" class="edge">
<title>S2-&gt;S8</title>
<path fill="none" stroke="black" d="M93.47,-353.93C105.1,-279.16 157.04,0 233,0 233,0 233,0 955,0 998.11,0 1046.03,-16.92 1073.73,-31.04"/>
<polygon fill="black" stroke="black" points="1071.85,-34 1082.3,-35.74 1075.22,-27.87 1071.85,-34"/>
</g>
<!-- S3&#45;&gt;S1 -->
<g id="edge11" class="edge">
<title>S3-&gt;S1</title>
<path fill="none" stroke="black" d="M583.62,-455.2C555.88,-491.85 470.48,-580 379,-580 161,-580 161,-580 161,-580 121.09,-580 74.88,-580 46.29,-577.72"/>
<polygon fill="black" stroke="black" points="46.99,-574.28 36.69,-576.76 46.29,-581.24 46.99,-574.28"/>
</g>
<!-- S3&#45;&gt;S4 -->
<g id="edge10" class="edge">
<title>S3-&gt;S4</title>
<path fill="none" stroke="black" d="M576.59,-445.4C550.36,-453.54 497.23,-468 451,-468 305,-468 305,-468 305,-468 252.91,-468 205.66,-423.11 180.99,-394.72"/>
<polygon fill="black" stroke="black" points="183.88,-392.73 174.77,-387.32 178.52,-397.23 183.88,-392.73"/>
</g>
<!-- S5 -->
<g id="node5" class="node">
<title>S5</title>
<ellipse fill="none" stroke="black" cx="666" cy="-440" rx="18" ry="18"/>
<text xml:space="preserve" text-anchor="middle" x="666" y="-437.3" font-family="Times,serif" font-size="9.00">S5</text>
</g>
<!-- S3&#45;&gt;S5 -->
<g id="edge9" class="edge">
<title>S3-&gt;S5</title>
<path fill="none" stroke="black" d="M611.24,-434.2C619.01,-433.33 628.54,-433.06 637.4,-433.39"/>
<polygon fill="black" stroke="black" points="637.12,-436.87 647.34,-434.1 637.62,-429.89 637.12,-436.87"/>
</g>
<!-- S9 -->
<g id="node9" class="node">
<title>S9</title>
<ellipse fill="none" stroke="black" cx="522" cy="-329" rx="18" ry="18"/>
<text xml:space="preserve" text-anchor="middle" x="522" y="-326.3" font-family="Times,serif" font-size="9.00">S9</text>
</g>
<!-- S3&#45;&gt;S9 -->
<g id="edge8" class="edge">
<title>S3-&gt;S9</title>
<path fill="none" stroke="black" d="M581.4,-426.77C568.93,-409.02 549.14,-377.73 536.12,-355.2"/>
<polygon fill="black" stroke="black" points="539.2,-353.55 531.24,-346.57 533.11,-356.99 539.2,-353.55"/>
</g>
<!-- S4&#45;&gt;S2 -->
<g id="edge19" class="edge">
<title>S4-&gt;S2</title>
<path fill="none" stroke="black" d="M144.85,-377.79C137.09,-378.67 127.57,-378.94 118.7,-378.62"/>
<polygon fill="black" stroke="black" points="118.97,-375.13 108.75,-377.91 118.47,-382.11 118.97,-375.13"/>
</g>
<!-- S6 -->
<g id="node6" class="node">
<title>S6</title>
<ellipse fill="none" stroke="black" cx="738" cy="-552" rx="18" ry="18"/>
<text xml:space="preserve" text-anchor="middle" x="738" y="-549.3" font-family="Times,serif" font-size="9.00">S6</text>
</g>
<!-- S4&#45;&gt;S6 -->
<g id="edge18" class="edge">
<title>S4-&gt;S6</title>
<path fill="none" stroke="black" d="M171.72,-387.47C190.1,-423.03 236.77,-506 305,-506 305,-506 305,-506 379,-506 443.66,-506 637.78,-530.19 709.76,-544.21"/>
<polygon fill="black" stroke="black" points="708.62,-547.54 719.12,-546.14 710.03,-540.69 708.62,-547.54"/>
</g>
<!-- S10 -->
<g id="node10" class="node">
<title>S10</title>
<ellipse fill="none" stroke="black" cx="234" cy="-299" rx="18" ry="18"/>
<text xml:space="preserve" text-anchor="middle" x="234" y="-296.3" font-family="Times,serif" font-size="9.00">S10</text>
</g>
<!-- S4&#45;&gt;S10 -->
<g id="edge17" class="edge">
<title>S4-&gt;S10</title>
<path fill="none" stroke="black" d="M172.73,-357C182.38,-345.11 197.51,-328.83 210.19,-316.41"/>
<polygon fill="black" stroke="black" points="212.54,-319.01 217.39,-309.58 207.72,-313.93 212.54,-319.01"/>
</g>
<!-- S5&#45;&gt;S3 -->
<g id="edge30" class="edge">
<title>S5-&gt;S3</title>
<path fill="none" stroke="black" d="M648.85,-445.79C641.09,-446.67 631.57,-446.94 622.7,-446.62"/>
<polygon fill="black" stroke="black" points="622.97,-443.13 612.75,-445.91 622.47,-450.11 622.97,-443.13"/>
</g>
<!-- S5&#45;&gt;S6 -->
<g id="edge29" class="edge">
<title>S5-&gt;S6</title>
<path fill="none" stroke="black" d="M676.44,-455.1C688.04,-473.66 707.87,-505.39 721.67,-527.46"/>
<polygon fill="black" stroke="black" points="718.64,-529.23 726.91,-535.85 724.57,-525.52 718.64,-529.23"/>
</g>
<!-- S11 -->
<g id="node11" class="node">
<title>S11</title>
<ellipse fill="none" stroke="black" cx="738" cy="-329" rx="18" ry="18"/>
<text xml:space="preserve" text-anchor="middle" x="738" y="-326.3" font-family="Times,serif" font-size="9.00">S11</text>
</g>
<!-- S5&#45;&gt;S11 -->
<g id="edge28" class="edge">
<title>S5-&gt;S11</title>
<path fill="none" stroke="black" d="M676.44,-425.03C687.97,-406.74 707.65,-375.54 721.43,-353.68"/>
<polygon fill="black" stroke="black" points="724.3,-355.69 726.68,-345.37 718.38,-351.96 724.3,-355.69"/>
</g>
<!-- S6&#45;&gt;S4 -->
<g id="edge38" class="edge">
<title>S6-&gt;S4</title>
<path fill="none" stroke="black" d="M719.76,-553.22C657.86,-550.71 446.95,-524 379,-524 305,-524 305,-524 305,-524 237.89,-524 191.63,-443.73 172.65,-399.68"/>
<polygon fill="black" stroke="black" points="175.91,-398.41 168.89,-390.48 169.43,-401.06 175.91,-398.41"/>
</g>
<!-- S12 -->
<g id="node12" class="node">
<title>S12</title>
<ellipse fill="none" stroke="black" cx="450" cy="-255" rx="18" ry="18"/>
<text xml:space="preserve" text-anchor="middle" x="450" y="-252.3" font-family="Times,serif" font-size="9.00">S12</text>
</g>
<!-- S6&#45;&gt;S12 -->
<g id="edge37" class="edge">
<title>S6-&gt;S12</title>
<path fill="none" stroke="black" d="M720.73,-546.57C689.67,-535.57 621.03,-508.16 576,-467 517.54,-413.56 478.2,-326.36 460.95,-282.31"/>
<polygon fill="black" stroke="black" points="464.32,-281.34 457.48,-273.25 457.79,-283.84 464.32,-281.34"/>
</g>
<!-- S7&#45;&gt;S1 -->
<g id="edge7" class="edge">
<title>S7-&gt;S1</title>
<path fill="none" stroke="black" d="M1023.52,-403.25C1017.37,-461.32 988.95,-636 883,-636 161,-636 161,-636 161,-636 114.98,-636 66.04,-610.23 39.33,-590.84"/>
<polygon fill="black" stroke="black" points="41.79,-588.32 31.74,-584.97 37.51,-593.86 41.79,-588.32"/>
</g>
<!-- S7&#45;&gt;S8 -->
<g id="edge6" class="edge">
<title>S7-&gt;S8</title>
<path fill="none" stroke="black" d="M1030.66,-367.36C1042.05,-312.55 1076.88,-144.86 1090.98,-76.98"/>
<polygon fill="black" stroke="black" points="1094.37,-77.86 1092.98,-67.36 1087.52,-76.44 1094.37,-77.86"/>
</g>
<!-- S7&#45;&gt;S9 -->
<g id="edge5" class="edge">
<title>S7-&gt;S9</title>
<path fill="none" stroke="black" d="M1008.82,-390.6C982.45,-394 928.61,-394 883,-394 665,-394 665,-394 665,-394 618.98,-394 570.04,-368.23 543.33,-348.84"/>
<polygon fill="black" stroke="black" points="545.79,-346.32 535.74,-342.97 541.51,-351.86 545.79,-346.32"/>
</g>
<!-- S13 -->
<g id="node13" class="node">
<title>S13</title>
<ellipse fill="none" stroke="black" cx="954" cy="-263" rx="18" ry="18"/>
<text xml:space="preserve" text-anchor="middle" x="954" y="-260.3" font-family="Times,serif" font-size="9.00">S13</text>
</g>
<!-- S7&#45;&gt;S13 -->
<g id="edge4" class="edge">
<title>S7-&gt;S13</title>
<path fill="none" stroke="black" d="M1014.19,-371.21C1001.47,-351.24 980.4,-314.59 967.13,-289.4"/>
<polygon fill="black" stroke="black" points="970.36,-288.02 962.66,-280.73 964.13,-291.22 970.36,-288.02"/>
</g>
<!-- S8&#45;&gt;S2 -->
<g id="edge16" class="edge">
<title>S8-&gt;S2</title>
<path fill="none" stroke="black" d="M1079.93,-45.87C1053.67,-37.71 1001.53,-18 955,-18 233,-18 233,-18 233,-18 162.46,-18 112.64,-258.72 96.57,-343.25"/>
<polygon fill="black" stroke="black" points="93.18,-342.36 94.77,-352.83 100.06,-343.65 93.18,-342.36"/>
</g>
<!-- S8&#45;&gt;S10 -->
<g id="edge15" class="edge">
<title>S8-&gt;S10</title>
<path fill="none" stroke="black" d="M1079.97,-49.58C1053.33,-51.91 1000.19,-56 955,-56 377,-56 377,-56 377,-56 279.02,-56 247.41,-205.09 238.31,-269.71"/>
<polygon fill="black" stroke="black" points="234.89,-268.86 237.06,-279.23 241.83,-269.78 234.89,-268.86"/>
</g>
<!-- S14 -->
<g id="node14" class="node">
<title>S14</title>
<ellipse fill="none" stroke="black" cx="1170" cy="-103" rx="18" ry="18"/>
<text xml:space="preserve" text-anchor="middle" x="1170" y="-100.3" font-family="Times,serif" font-size="9.00">S14</text>
</g>
<!-- S8&#45;&gt;S14 -->
<g id="edge14" class="edge">
<title>S8-&gt;S14</title>
<path fill="none" stroke="black" d="M1112.83,-58.87C1122.42,-66.4 1135.4,-76.6 1146.47,-85.3"/>
<polygon fill="black" stroke="black" points="1143.98,-87.8 1154.01,-91.22 1148.31,-82.29 1143.98,-87.8"/>
</g>
<!-- S9&#45;&gt;S3 -->
<g id="edge26" class="edge">
<title>S9-&gt;S3</title>
<path fill="none" stroke="black" d="M534.56,-342.16C547.03,-359.91 566.85,-391.26 579.89,-413.81"/>
<polygon fill="black" stroke="black" points="576.81,-415.47 584.78,-422.46 582.9,-412.03 576.81,-415.47"/>
</g>
<!-- S9&#45;&gt;S7 -->
<g id="edge27" class="edge">
<title>S9-&gt;S7</title>
<path fill="none" stroke="black" d="M539.22,-334.35C564.78,-347.38 616.5,-376 665,-376 665,-376 665,-376 883,-376 922.91,-376 969.12,-376 997.71,-378.28"/>
<polygon fill="black" stroke="black" points="997.01,-381.72 1007.31,-379.24 997.71,-374.76 997.01,-381.72"/>
</g>
<!-- S9&#45;&gt;S10 -->
<g id="edge25" class="edge">
<title>S9-&gt;S10</title>
<path fill="none" stroke="black" d="M503.69,-327.18C455.99,-322.18 322.24,-308.15 263.4,-301.98"/>
<polygon fill="black" stroke="black" points="263.85,-298.51 253.54,-300.94 263.12,-305.47 263.85,-298.51"/>
</g>
<!-- S9&#45;&gt;S11 -->
<g id="edge24" class="edge">
<title>S9-&gt;S11</title>
<path fill="none" stroke="black" d="M539.79,-325.16C576.35,-321.61 663.47,-321.31 708.68,-324.25"/>
<polygon fill="black" stroke="black" points="708.24,-327.72 718.48,-325.02 708.79,-320.74 708.24,-327.72"/>
</g>
<!-- S15 -->
<g id="node15" class="node">
<title>S15</title>
<ellipse fill="none" stroke="black" cx="882" cy="-263" rx="18" ry="18"/>
<text xml:space="preserve" text-anchor="middle" x="882" y="-260.3" font-family="Times,serif" font-size="9.00">S15</text>
</g>
<!-- S9&#45;&gt;S15 -->
<g id="edge23" class="edge">
<title>S9-&gt;S15</title>
<path fill="none" stroke="black" d="M537.93,-319.74C578.29,-301.73 693.18,-265.95 792,-254 812.69,-251.5 836.28,-251.63 853.98,-253.64"/>
<polygon fill="black" stroke="black" points="853.27,-257.07 863.68,-255.09 854.31,-250.15 853.27,-257.07"/>
</g>
<!-- S10&#45;&gt;S4 -->
<g id="edge35" class="edge">
<title>S10-&gt;S4</title>
<path fill="none" stroke="black" d="M223.24,-314.03C213.59,-325.93 198.47,-342.2 185.79,-354.6"/>
<polygon fill="black" stroke="black" points="183.45,-352 178.6,-361.43 188.26,-357.08 183.45,-352"/>
</g>
<!-- S10&#45;&gt;S7 -->
<g id="edge36" class="edge">
<title>S10-&gt;S7</title>
<path fill="none" stroke="black" d="M245.89,-312.72C267.76,-338.59 319.83,-392 377,-392 377,-392 377,-392 451,-392 515.79,-392 515.72,-443.25 576,-467 613.63,-481.83 624.55,-486 665,-486 665,-486 665,-486 883,-486 936.23,-486 983.37,-438.29 1007.65,-408.45"/>
<polygon fill="black" stroke="black" points="1010.34,-410.69 1013.77,-400.66 1004.84,-406.36 1010.34,-410.69"/>
</g>
<!-- S10&#45;&gt;S12 -->
<g id="edge34" class="edge">
<title>S10-&gt;S12</title>
<path fill="none" stroke="black" d="M252.15,-295.47C288.95,-287.91 375.77,-270.06 420.8,-260.8"/>
<polygon fill="black" stroke="black" points="421.49,-264.23 430.58,-258.79 420.08,-257.37 421.49,-264.23"/>
</g>
<!-- S16 -->
<g id="node16" class="node">
<title>S16</title>
<ellipse fill="none" stroke="black" cx="306" cy="-215" rx="18" ry="18"/>
<text xml:space="preserve" text-anchor="middle" x="306" y="-212.3" font-family="Times,serif" font-size="9.00">S16</text>
</g>
<!-- S10&#45;&gt;S16 -->
<g id="edge33" class="edge">
<title>S10-&gt;S16</title>
<path fill="none" stroke="black" d="M243.87,-283.69C253.89,-269.59 270.56,-249.06 283.97,-233.99"/>
<polygon fill="black" stroke="black" points="286.23,-236.7 290.39,-226.96 281.06,-231.99 286.23,-236.7"/>
</g>
<!-- S11&#45;&gt;S9 -->
<g id="edge45" class="edge">
<title>S11-&gt;S9</title>
<path fill="none" stroke="black" d="M719.99,-332.86C683.24,-336.4 596.1,-336.69 551.05,-333.74"/>
<polygon fill="black" stroke="black" points="551.55,-330.26 541.3,-332.96 550.99,-337.24 551.55,-330.26"/>
</g>
<!-- S11&#45;&gt;S12 -->
<g id="edge44" class="edge">
<title>S11-&gt;S12</title>
<path fill="none" stroke="black" d="M720.34,-324.69C672.99,-312.44 537.28,-277.32 478.59,-262.14"/>
<polygon fill="black" stroke="black" points="479.64,-258.79 469.08,-259.68 477.88,-265.57 479.64,-258.79"/>
</g>
<!-- S17 -->
<g id="node17" class="node">
<title>S17</title>
<ellipse fill="none" stroke="black" cx="810" cy="-290" rx="18" ry="18"/>
<text xml:space="preserve" text-anchor="middle" x="810" y="-287.3" font-family="Times,serif" font-size="9.00">S17</text>
</g>
<!-- S11&#45;&gt;S17 -->
<g id="edge43" class="edge">
<title>S11-&gt;S17</title>
<path fill="none" stroke="black" d="M751.51,-316.71C760.01,-310.7 771.57,-303.84 782.09,-298.4"/>
<polygon fill="black" stroke="black" points="783.29,-301.71 790.76,-294.19 780.24,-295.41 783.29,-301.71"/>
</g>
<!-- S12&#45;&gt;S9 -->
<g id="edge50" class="edge">
<title>S12-&gt;S9</title>
<path fill="none" stroke="black" d="M463.19,-267.89C473.63,-278.93 488.87,-295.03 501.07,-307.94"/>
<polygon fill="black" stroke="black" points="498.49,-310.3 507.91,-315.16 503.58,-305.49 498.49,-310.3"/>
</g>
<!-- S18 -->
<g id="node18" class="node">
<title>S18</title>
<ellipse fill="none" stroke="black" cx="378" cy="-215" rx="18" ry="18"/>
<text xml:space="preserve" text-anchor="middle" x="378" y="-212.3" font-family="Times,serif" font-size="9.00">S18</text>
</g>
<!-- S12&#45;&gt;S18 -->
<g id="edge49" class="edge">
<title>S12-&gt;S18</title>
<path fill="none" stroke="black" d="M432.12,-251.23C422.74,-246.87 410.96,-240.28 400.88,-233.81"/>
<polygon fill="black" stroke="black" points="403.01,-231.03 392.77,-228.32 399.08,-236.82 403.01,-231.03"/>
</g>
<!-- S13&#45;&gt;S7 -->
<g id="edge22" class="edge">
<title>S13-&gt;S7</title>
<path fill="none" stroke="black" d="M965.94,-277C978.66,-296.99 999.59,-333.4 1012.82,-358.5"/>
<polygon fill="black" stroke="black" points="1009.58,-359.86 1017.27,-367.14 1015.8,-356.65 1009.58,-359.86"/>
</g>
<!-- S13&#45;&gt;S14 -->
<g id="edge21" class="edge">
<title>S13-&gt;S14</title>
<path fill="none" stroke="black" d="M969.04,-252.5C1005.09,-225.55 1101.19,-153.7 1145.73,-120.4"/>
<polygon fill="black" stroke="black" points="1147.78,-123.23 1153.69,-114.44 1143.59,-117.63 1147.78,-123.23"/>
</g>
<!-- S13&#45;&gt;S15 -->
<g id="edge20" class="edge">
<title>S13-&gt;S15</title>
<path fill="none" stroke="black" d="M936.85,-268.79C929.09,-269.67 919.57,-269.94 910.7,-269.62"/>
<polygon fill="black" stroke="black" points="910.97,-266.13 900.75,-268.91 910.47,-273.11 910.97,-266.13"/>
</g>
<!-- S14&#45;&gt;S7 -->
<g id="edge32" class="edge">
<title>S14-&gt;S7</title>
<path fill="none" stroke="black" d="M1161.42,-119.1C1151.26,-140.6 1132.58,-179.81 1116,-213 1089.83,-265.38 1058.08,-326.09 1040.45,-359.56"/>
<polygon fill="black" stroke="black" points="1037.52,-357.61 1035.96,-368.09 1043.72,-360.87 1037.52,-357.61"/>
</g>
<!-- S14&#45;&gt;S16 -->
<g id="edge31" class="edge">
<title>S14-&gt;S16</title>
<path fill="none" stroke="black" d="M1152.82,-108.6C1126.45,-112 1072.61,-112 1027,-112 449,-112 449,-112 449,-112 394.94,-112 349.36,-162.67 325.31,-193.11"/>
<polygon fill="black" stroke="black" points="322.84,-190.58 319.48,-200.63 328.37,-194.87 322.84,-190.58"/>
</g>
<!-- S15&#45;&gt;S9 -->
<g id="edge41" class="edge">
<title>S15-&gt;S9</title>
<path fill="none" stroke="black" d="M864.53,-268.46C846.61,-269.81 817.16,-268.96 792,-272 702.66,-282.8 600.19,-313.08 551.53,-325.07"/>
<polygon fill="black" stroke="black" points="550.76,-321.66 541.83,-327.36 552.36,-328.47 550.76,-321.66"/>
</g>
<!-- S15&#45;&gt;S13 -->
<g id="edge42" class="edge">
<title>S15-&gt;S13</title>
<path fill="none" stroke="black" d="M899.24,-257.2C907.01,-256.33 916.54,-256.06 925.4,-256.39"/>
<polygon fill="black" stroke="black" points="925.12,-259.87 935.34,-257.1 925.62,-252.89 925.12,-259.87"/>
</g>
<!-- S15&#45;&gt;S16 -->
<g id="edge40" class="edge">
<title>S15-&gt;S16</title>
<path fill="none" stroke="black" d="M871.74,-247.76C851.7,-216.92 801.07,-150 739,-150 449,-150 449,-150 449,-150 403.36,-150 356.35,-178.1 329.5,-197.35"/>
<polygon fill="black" stroke="black" points="327.73,-194.31 321.77,-203.07 331.89,-199.93 327.73,-194.31"/>
</g>
<!-- S15&#45;&gt;S17 -->
<g id="edge39" class="edge">
<title>S15-&gt;S17</title>
<path fill="none" stroke="black" d="M867.18,-273.84C859.16,-278.01 848.78,-282.39 839.12,-285.79"/>
<polygon fill="black" stroke="black" points="838.21,-282.4 829.75,-288.78 840.34,-289.07 838.21,-282.4"/>
</g>
<!-- S16&#45;&gt;S10 -->
<g id="edge47" class="edge">
<title>S16-&gt;S10</title>
<path fill="none" stroke="black" d="M295.99,-230.51C285.92,-244.65 269.27,-265.14 255.91,-280.15"/>
<polygon fill="black" stroke="black" points="253.68,-277.4 249.52,-287.14 258.85,-282.12 253.68,-277.4"/>
</g>
<!-- S16&#45;&gt;S14 -->
<g id="edge48" class="edge">
<title>S16-&gt;S14</title>
<path fill="none" stroke="black" d="M314.27,-198.57C332.81,-165.12 384.95,-94 449,-94 449,-94 449,-94 1027,-94 1066.91,-94 1113.12,-94 1141.71,-96.28"/>
<polygon fill="black" stroke="black" points="1141.01,-99.72 1151.31,-97.24 1141.71,-92.76 1141.01,-99.72"/>
</g>
<!-- S16&#45;&gt;S18 -->
<g id="edge46" class="edge">
<title>S16-&gt;S18</title>
<path fill="none" stroke="black" d="M323.24,-209.2C331.01,-208.33 340.54,-208.06 349.4,-208.39"/>
<polygon fill="black" stroke="black" points="349.12,-211.87 359.34,-209.1 349.62,-204.89 349.12,-211.87"/>
</g>
<!-- S17&#45;&gt;S11 -->
<g id="edge52" class="edge">
<title>S17-&gt;S11</title>
<path fill="none" stroke="black" d="M796.38,-302.36C787.99,-308.29 776.65,-315.03 766.26,-320.41"/>
<polygon fill="black" stroke="black" points="764.76,-317.25 757.31,-324.77 767.83,-323.54 764.76,-317.25"/>
</g>
<!-- S17&#45;&gt;S15 -->
<g id="edge53" class="edge">
<title>S17-&gt;S15</title>
<path fill="none" stroke="black" d="M824.83,-279.16C832.85,-274.98 843.24,-270.6 852.9,-267.21"/>
<polygon fill="black" stroke="black" points="853.82,-270.59 862.28,-264.21 851.69,-263.92 853.82,-270.59"/>
</g>
<!-- S17&#45;&gt;S18 -->
<g id="edge51" class="edge">
<title>S17-&gt;S18</title>
<path fill="none" stroke="black" d="M796.02,-278.69C764.16,-252.14 678.55,-188 595,-188 521,-188 521,-188 521,-188 480.6,-188 434.85,-198.68 406.46,-206.61"/>
<polygon fill="black" stroke="black" points="405.51,-203.24 396.88,-209.37 407.45,-209.96 405.51,-203.24"/>
</g>
<!-- S18&#45;&gt;S12 -->
<g id="edge54" class="edge">
<title>S18-&gt;S12</title>
<path fill="none" stroke="black" d="M395.95,-218.8C405.41,-223.21 417.31,-229.87 427.44,-236.39"/>
<polygon fill="black" stroke="black" points="425.33,-239.19 435.57,-241.92 429.27,-233.4 425.33,-239.19"/>
</g>
<!-- S18&#45;&gt;S16 -->
<g id="edge55" class="edge">
<title>S18-&gt;S16</title>
<path fill="none" stroke="black" d="M360.85,-220.79C353.09,-221.67 343.57,-221.94 334.7,-221.62"/>
<polygon fill="black" stroke="black" points="334.97,-218.13 324.75,-220.91 334.47,-225.11 334.97,-218.13"/>
</g>
</g>
</svg>